<svg width="512" height="512" viewBox="0 0 512 512" fill="none" xmlns="http://www.w3.org/2000/svg">
<rect width="512" height="512" fill="#1D1D1D"/>
<path d="M145.375 243.625H185L256 314.875L327 243.625H366.625V439H327V298.5L256 366.875L185 298.5V439H145.375V243.625Z" fill="white"/>
<path d="M170.941 141.777C170.941 130.484 173.015 120.148 177.162 110.77C181.309 101.391 187.115 93.3516 194.58 86.6523C202.109 79.8893 211.105 74.6576 221.568 70.957C232.096 67.2565 243.74 65.4062 256.5 65.4062C269.197 65.4062 280.809 67.2565 291.336 70.957C301.863 74.6576 310.859 79.8893 318.324 86.6523C325.853 93.3516 331.691 101.391 335.838 110.77C339.985 120.148 342.059 130.484 342.059 141.777C342.059 153.134 339.985 163.566 335.838 173.072C331.691 182.515 325.853 190.65 318.324 197.477C310.859 204.303 301.863 209.631 291.336 213.459C280.809 217.223 269.197 219.105 256.5 219.105C243.74 219.105 232.096 217.223 221.568 213.459C211.105 209.631 202.109 204.303 194.58 197.477C187.115 190.65 181.309 182.515 177.162 173.072C173.015 163.566 170.941 153.134 170.941 141.777ZM201.279 141.777C201.279 149.497 202.651 156.452 205.395 162.641C208.202 168.829 212.062 174.125 216.975 178.527C221.951 182.866 227.789 186.215 234.488 188.576C241.251 190.937 248.589 192.117 256.5 192.117C264.411 192.117 271.717 190.937 278.416 188.576C285.179 186.215 291.017 182.866 295.93 178.527C300.842 174.125 304.702 168.829 307.51 162.641C310.317 156.452 311.721 149.497 311.721 141.777C311.721 134.057 310.317 127.135 307.51 121.01C304.702 114.885 300.842 109.717 295.93 105.506C291.017 101.231 285.179 97.9772 278.416 95.7441C271.717 93.5111 264.411 92.3945 256.5 92.3945C248.589 92.3945 241.251 93.5111 234.488 95.7441C227.789 97.9772 221.951 101.231 216.975 105.506C212.062 109.717 208.202 114.885 205.395 121.01C202.651 127.135 201.279 134.057 201.279 141.777Z" fill="white"/>
</svg>
